<?xml version="1.0" encoding="UTF-8" standalone="no"?>
<svg
   viewBox="0 0 128 64"
   version="1.1"
   id="svg1"
   sodipodi:docname="duplicate.svg"
   xml:space="preserve"
   width="256"
   height="128"
   inkscape:version="1.3.2 (091e20ef0f, 2023-11-25, custom)"
   inkscape:export-filename="duplicate.png"
   inkscape:export-xdpi="96"
   inkscape:export-ydpi="96"
   xmlns:inkscape="http://www.inkscape.org/namespaces/inkscape"
   xmlns:sodipodi="http://sodipodi.sourceforge.net/DTD/sodipodi-0.dtd"
   xmlns="http://www.w3.org/2000/svg"
   xmlns:svg="http://www.w3.org/2000/svg"
   xmlns:rdf="http://www.w3.org/1999/02/22-rdf-syntax-ns#"
   xmlns:cc="http://creativecommons.org/ns#"
   xmlns:dc="http://purl.org/dc/elements/1.1/"><defs
     id="defs1" /><sodipodi:namedview
     id="namedview1"
     pagecolor="#505050"
     bordercolor="#ffffff"
     borderopacity="1"
     inkscape:showpageshadow="0"
     inkscape:pageopacity="0"
     inkscape:pagecheckerboard="1"
     inkscape:deskcolor="#505050"
     inkscape:zoom="1"
     inkscape:cx="105"
     inkscape:cy="15"
     inkscape:window-width="900"
     inkscape:window-height="1009"
     inkscape:window-x="1004"
     inkscape:window-y="55"
     inkscape:window-maximized="1"
     inkscape:current-layer="svg1" /><title
     id="title1">laptop@1x</title><g
     id="Layer_2"
     data-name="Layer 2"
     transform="translate(4.62,28.635)"><g
       id="Electronics"><g
         id="Laptop_2x.png"
         data-name="Laptop@2x.png" /></g></g><path
     d="m 62.988045,54.194895 v 0 l -4.7432,-7.1269 a 2.42,2.42 0 0 0 0.121,-0.6897 v -26.62 a 2.42,2.42 0 0 0 -2.42,-2.42 h -38.72 a 2.42,2.42 0 0 0 -2.42,2.42 v 26.62 a 2.3232,2.3232 0 0 0 0.1089,0.6776 l -4.7432,7.1269 v 0 a 1.21,1.21 0 0 0 -0.2057,0.6655 1.21,1.21 0 0 0 1.21,1.21 h 50.82 a 1.21,1.21 0 0 0 1.21,-1.21 1.21,1.21 0 0 0 -0.2178,-0.6534 z m -45.7622,-34.4366 h 38.72 v 26.62 h -38.72 z m -3.7873,33.88 3.2791,-4.9247 a 2.1054,2.1054 0 0 0 0.5082,0.0847 h 38.72 a 2.1296,2.1296 0 0 0 0.5082,-0.0847 l 3.2791,4.9247 z"
     id="path1"
     style="fill:#ffffff;stroke-width:1.21" /><rect
     width="54.885601"
     height="35.3032"
     x="62.168453"
     y="8.9218044"
     fill="none"
     stroke="#010101"
     stroke-miterlimit="10"
     stroke-width="4"
     id="rect1"
     style="stroke:#ffffff;stroke-width:2.5;stroke-dasharray:none;stroke-opacity:1" /><metadata
     id="metadata1"><rdf:RDF><cc:Work
         rdf:about=""><dc:title>laptop@1x</dc:title></cc:Work></rdf:RDF></metadata><path
     fill="none"
     stroke="#010101"
     stroke-miterlimit="10"
     stroke-width="4"
     d="m 55.114569,24.866665 c 0.6804,0 1.3608,0 2.025,0.0972 v 22.5828 h -22.5261 a 19.9665,19.9665 0 0 1 -0.1539,-2.43 20.4525,20.4525 0 0 1 20.655,-20.25 z"
     id="path1-9-6"
     style="stroke:#ffffff;stroke-width:2.43;stroke-dasharray:none;stroke-opacity:1" /><path
     fill="none"
     stroke="#010101"
     stroke-miterlimit="10"
     stroke-width="4"
     d="m 114.55201,16.231168 c 0.84,0 1.68,0 2.5,0.12 v 27.88 H 89.242004 a 24.65,24.65 0 0 1 -0.19,-3 25.25,25.25 0 0 1 25.500006,-25 z"
     id="path1-2-0"
     style="stroke:#ffffff;stroke-width:2.5;stroke-dasharray:none;stroke-opacity:1" /></svg>
